<svg xmlns="http://www.w3.org/2000/svg" viewBox="0 0 32 32" fill="none">
  <defs>
    <linearGradient id="coreBg" x1="0%" y1="0%" x2="100%" y2="100%">
      <stop offset="0%" stop-color="#7c3aed"/>
      <stop offset="50%" stop-color="#6d5dfc"/>
      <stop offset="100%" stop-color="#4f46e5"/>
    </linearGradient>
    <linearGradient id="coreGlow" x1="0%" y1="0%" x2="100%" y2="100%">
      <stop offset="0%" stop-color="#ffffff"/>
      <stop offset="100%" stop-color="#c4b5fd"/>
    </linearGradient>
    <linearGradient id="coreAccent" x1="0%" y1="100%" x2="100%" y2="0%">
      <stop offset="0%" stop-color="#a78bfa"/>
      <stop offset="100%" stop-color="#ffffff"/>
    </linearGradient>
  </defs>

  <!-- Squircle Base -->
  <rect width="32" height="32" rx="8" fill="url(#coreBg)"/>

  <!-- Coretext AI Logo Mark: Futuristic Interlocking Neural Core / C-Nexus -->
  <!-- Top-Left Orbital Arc -->
  <path d="M16 6C10.477 6 6 10.477 6 16C6 18.2 6.71 20.23 7.92 21.88L11.2 18.6C10.45 17.84 10 16.97 10 16C10 12.69 12.69 10 16 10C16.97 10 17.84 10.45 18.6 11.2L21.88 7.92C20.23 6.71 18.2 6 16 6Z" fill="url(#coreGlow)"/>

  <!-- Bottom-Right Orbital Arc -->
  <path d="M16 26C21.523 26 26 21.523 26 16C26 13.8 25.29 11.77 24.08 10.12L20.8 13.4C21.55 14.16 22 15.03 22 16C22 19.31 19.31 22 16 22C15.03 22 14.16 21.55 13.4 20.8L10.12 24.08C11.77 25.29 13.8 26 16 26Z" fill="url(#coreAccent)"/>

  <!-- Central Intelligence Nucleus -->
  <circle cx="16" cy="16" r="3" fill="#ffffff"/>
</svg>
